#N canvas 0 0 450 300 10;
#X obj 160 205 dac~;
#X obj 180 99 osc~ 440;
#X obj 20 63 loadbang;
#X msg 20 93 \; pd dsp 1;
#X obj 163 159 *~;
#X obj 117 99 osc~ 1;
#X connect 1 0 4 1;
#X connect 2 0 3 0;
#X connect 4 0 0 0;
#X connect 4 0 0 1;
#X connect 5 0 4 0;
